<?xml version="1.0" encoding="UTF-8"?> <svg xmlns="http://www.w3.org/2000/svg" width="60.112" height="53.532" viewBox="0 0 60.112 53.532"><g id="React-icon" transform="translate(-175.7 -78)"><path id="Trazado_62" data-name="Trazado 62" d="M235.812,104.772c0-3.982-4.987-7.756-12.632-10.1,1.764-7.793.98-13.993-2.475-15.977a5.372,5.372,0,0,0-2.745-.686v2.732a2.837,2.837,0,0,1,1.4.319c1.666.956,2.389,4.595,1.826,9.275-.135,1.152-.355,2.365-.625,3.6a59.377,59.377,0,0,0-7.78-1.336,59.767,59.767,0,0,0-5.1-6.126c3.994-3.713,7.744-5.746,10.292-5.746V78h0c-3.369,0-7.78,2.4-12.24,6.567-4.46-4.141-8.871-6.518-12.24-6.518v2.732c2.536,0,6.3,2.022,10.292,5.71a57.873,57.873,0,0,0-5.06,6.114,57.215,57.215,0,0,0-7.793,1.348c-.282-1.225-.49-2.414-.637-3.553-.576-4.681.135-8.32,1.789-9.288a2.727,2.727,0,0,1,1.409-.319V78.061h0a5.463,5.463,0,0,0-2.769.686c-3.443,1.985-4.215,8.173-2.438,15.941-7.621,2.353-12.583,6.114-12.583,10.084s4.987,7.756,12.632,10.1c-1.764,7.793-.98,13.993,2.475,15.977a5.386,5.386,0,0,0,2.757.686c3.369,0,7.78-2.4,12.24-6.567,4.46,4.141,8.871,6.518,12.24,6.518a5.463,5.463,0,0,0,2.769-.686c3.443-1.985,4.215-8.173,2.438-15.941C230.849,112.516,235.812,108.742,235.812,104.772ZM219.859,96.6c-.453,1.581-1.017,3.21-1.654,4.84-.5-.98-1.029-1.96-1.605-2.941s-1.164-1.936-1.764-2.867C216.575,95.889,218.254,96.207,219.859,96.6Zm-5.612,13.049c-.956,1.654-1.936,3.222-2.953,4.681-1.826.159-3.676.245-5.538.245s-3.7-.086-5.514-.233q-1.525-2.187-2.965-4.656-1.4-2.408-2.549-4.877c.76-1.642,1.617-3.284,2.536-4.889.956-1.654,1.936-3.222,2.953-4.681,1.826-.159,3.676-.245,5.538-.245s3.7.086,5.514.233q1.525,2.187,2.965,4.656,1.4,2.408,2.549,4.877C216.011,106.4,215.166,108.044,214.247,109.649Zm3.958-1.593c.662,1.642,1.225,3.284,1.691,4.877-1.605.392-3.3.723-5.048.98.6-.943,1.2-1.911,1.764-2.9S217.7,109.036,218.2,108.056ZM205.78,121.129a50.51,50.51,0,0,1-3.406-3.921c1.1.049,2.23.086,3.369.086s2.291-.025,3.406-.086A47.825,47.825,0,0,1,205.78,121.129Zm-9.116-7.217c-1.74-.257-3.418-.576-5.024-.968.453-1.581,1.017-3.21,1.654-4.84.5.98,1.029,1.96,1.605,2.941S196.064,112.981,196.664,113.913Zm9.055-25.5a50.515,50.515,0,0,1,3.406,3.921c-1.1-.049-2.23-.086-3.369-.086s-2.291.025-3.406.086A47.823,47.823,0,0,1,205.719,88.415Zm-9.067,7.217c-.6.943-1.2,1.911-1.764,2.9s-1.09,1.96-1.593,2.941c-.662-1.642-1.225-3.284-1.691-4.877C193.209,96.22,194.9,95.889,196.652,95.632Zm-11.089,15.34c-4.337-1.85-7.143-4.276-7.143-6.2s2.806-4.362,7.143-6.2c1.054-.453,2.205-.858,3.394-1.238a58.846,58.846,0,0,0,2.757,7.462,58.017,58.017,0,0,0-2.72,7.425C187.781,111.842,186.629,111.425,185.563,110.972Zm6.592,17.509c-1.666-.956-2.389-4.595-1.826-9.275.135-1.152.355-2.365.625-3.6a59.38,59.38,0,0,0,7.78,1.336,59.769,59.769,0,0,0,5.1,6.126c-3.994,3.713-7.744,5.747-10.292,5.747A2.924,2.924,0,0,1,192.155,128.481Zm29.063-9.337c.576,4.681-.135,8.32-1.789,9.288a2.727,2.727,0,0,1-1.409.319c-2.536,0-6.3-2.022-10.292-5.71a57.869,57.869,0,0,0,5.06-6.114,57.218,57.218,0,0,0,7.793-1.348A34.3,34.3,0,0,1,221.219,119.144Zm4.717-8.173c-1.054.453-2.205.858-3.394,1.238a58.847,58.847,0,0,0-2.757-7.462,58.015,58.015,0,0,0,2.72-7.425c1.213.38,2.365.8,3.443,1.25,4.337,1.85,7.143,4.276,7.143,6.2S230.273,109.134,225.936,110.972Z" transform="translate(0)" fill="#61dafb"></path><path id="Trazado_63" data-name="Trazado 63" d="M320.8,78.4Z" transform="translate(-127.321 -0.351)" fill="#61dafb"></path><circle id="Elipse_1" data-name="Elipse 1" cx="5.599" cy="5.599" r="5.599" transform="translate(200.144 99.173)" fill="#61dafb"></circle><path id="Trazado_64" data-name="Trazado 64" d="M520.5,78.1Z" transform="translate(-302.553 -0.088)" fill="#61dafb"></path></g></svg> 